<svg xmlns="http://www.w3.org/2000/svg" xmlns:xlink="http://www.w3.org/1999/xlink" width="200" zoomAndPan="magnify" viewBox="0 0 150 33.749998" height="45" preserveAspectRatio="xMidYMid meet" version="1.0"><defs><g/><clipPath id="d4ad03695b"><path d="M 0.550781 1.445312 L 30.40625 1.445312 L 30.40625 32.660156 L 0.550781 32.660156 Z M 0.550781 1.445312 " clip-rule="nonzero"/></clipPath><clipPath id="3f7c7b0e66"><path d="M 13 1.445312 L 30.40625 1.445312 L 30.40625 9 L 13 9 Z M 13 1.445312 " clip-rule="nonzero"/></clipPath><clipPath id="e4ab0a3ae5"><path d="M 0.550781 9 L 8 9 L 8 32.660156 L 0.550781 32.660156 Z M 0.550781 9 " clip-rule="nonzero"/></clipPath><clipPath id="ddf985c9d5"><path d="M 120 0 L 149.449219 0 L 149.449219 32 L 120 32 Z M 120 0 " clip-rule="nonzero"/></clipPath></defs><g clip-path="url(#d4ad03695b)"><path fill="#383838" d="M 20.078125 13.152344 L 30.378906 13.152344 L 30.378906 32.660156 L 17.96875 32.660156 L 0.582031 1.445312 L 8.703125 1.445312 L 22.019531 25.355469 L 23.347656 25.355469 L 23.347656 19.046875 C 22.035156 16.667969 20.691406 14.261719 20.078125 13.152344 Z M 20.078125 13.152344 " fill-opacity="1" fill-rule="nonzero"/></g><g clip-path="url(#3f7c7b0e66)"><path fill="#383838" d="M 30.378906 1.445312 L 30.378906 8.75 L 17.960938 8.75 L 13.898438 1.445312 Z M 30.378906 1.445312 " fill-opacity="1" fill-rule="nonzero"/></g><g clip-path="url(#e4ab0a3ae5)"><path fill="#383838" d="M 0.585938 9.648438 L 7.613281 22.257812 L 7.613281 32.660156 L 0.585938 32.660156 Z M 0.585938 9.648438 " fill-opacity="1" fill-rule="nonzero"/></g><g fill="#383838" fill-opacity="1"><g transform="translate(42.786011, 30.824337)"><g><path d="M 2.1875 -30.109375 L 11.53125 -30.109375 C 14.351562 -30.109375 16.601562 -29.503906 18.28125 -28.296875 C 19.96875 -27.097656 20.8125 -25.148438 20.8125 -22.453125 C 20.8125 -19.429688 19.554688 -17.273438 17.046875 -15.984375 C 21.328125 -15.234375 23.46875 -12.703125 23.46875 -8.390625 C 23.46875 -5.859375 22.59375 -3.828125 20.84375 -2.296875 C 19.09375 -0.765625 16.679688 0 13.609375 0 L 2.1875 0 Z M 9.046875 -18.328125 L 9.59375 -18.328125 C 11.132812 -18.328125 12.28125 -18.59375 13.03125 -19.125 C 13.78125 -19.65625 14.15625 -20.53125 14.15625 -21.75 C 14.15625 -23.789062 12.632812 -24.8125 9.59375 -24.8125 L 9.046875 -24.8125 Z M 9.046875 -5.296875 L 11.203125 -5.296875 C 14.566406 -5.296875 16.25 -6.414062 16.25 -8.65625 C 16.25 -9.988281 15.828125 -10.945312 14.984375 -11.53125 C 14.140625 -12.113281 12.878906 -12.40625 11.203125 -12.40625 L 9.046875 -12.40625 Z M 9.046875 -5.296875 "/></g></g></g><g fill="#383838" fill-opacity="1"><g transform="translate(67.09162, 30.824337)"><g><path d="M 9.046875 -30.109375 L 9.046875 -6.015625 L 19.421875 -6.015625 L 19.421875 0 L 2.1875 0 L 2.1875 -30.109375 Z M 9.046875 -30.109375 "/></g></g></g><g fill="#383838" fill-opacity="1"><g transform="translate(87.711245, 30.824337)"><g><path d="M 0.84375 -15.078125 C 0.84375 -19.429688 2.328125 -23.113281 5.296875 -26.125 C 8.265625 -29.144531 11.84375 -30.65625 16.03125 -30.65625 C 20.238281 -30.65625 23.8125 -29.148438 26.75 -26.140625 C 29.695312 -23.140625 31.171875 -19.453125 31.171875 -15.078125 C 31.171875 -10.671875 29.722656 -6.960938 26.828125 -3.953125 C 23.929688 -0.953125 20.332031 0.546875 16.03125 0.546875 C 11.625 0.546875 7.988281 -0.941406 5.125 -3.921875 C 2.269531 -6.898438 0.84375 -10.617188 0.84375 -15.078125 Z M 8.25 -15.078125 C 8.25 -13.492188 8.488281 -12.050781 8.96875 -10.75 C 9.457031 -9.445312 10.3125 -8.34375 11.53125 -7.4375 C 12.75 -6.539062 14.25 -6.09375 16.03125 -6.09375 C 18.582031 -6.09375 20.507812 -6.96875 21.8125 -8.71875 C 23.113281 -10.46875 23.765625 -12.585938 23.765625 -15.078125 C 23.765625 -17.535156 23.097656 -19.644531 21.765625 -21.40625 C 20.441406 -23.164062 18.53125 -24.046875 16.03125 -24.046875 C 13.539062 -24.046875 11.617188 -23.164062 10.265625 -21.40625 C 8.921875 -19.644531 8.25 -17.535156 8.25 -15.078125 Z M 8.25 -15.078125 "/></g></g></g><g clip-path="url(#ddf985c9d5)"><g fill="#383838" fill-opacity="1"><g transform="translate(119.717288, 30.824337)"><g><path d="M 29.421875 -16.859375 L 29.421875 -10.328125 C 28.640625 -6.753906 26.929688 -4.046875 24.296875 -2.203125 C 21.671875 -0.367188 18.742188 0.546875 15.515625 0.546875 C 11.453125 0.546875 7.988281 -0.972656 5.125 -4.015625 C 2.269531 -7.054688 0.84375 -10.726562 0.84375 -15.03125 C 0.84375 -19.414062 2.238281 -23.113281 5.03125 -26.125 C 7.832031 -29.144531 11.328125 -30.65625 15.515625 -30.65625 C 20.398438 -30.65625 24.269531 -28.941406 27.125 -25.515625 L 22.625 -20.59375 C 21.019531 -23.164062 18.78125 -24.453125 15.90625 -24.453125 C 13.789062 -24.453125 11.984375 -23.53125 10.484375 -21.6875 C 8.992188 -19.851562 8.25 -17.632812 8.25 -15.03125 C 8.25 -12.476562 8.992188 -10.296875 10.484375 -8.484375 C 11.984375 -6.671875 13.789062 -5.765625 15.90625 -5.765625 C 17.664062 -5.765625 19.195312 -6.289062 20.5 -7.34375 C 21.800781 -8.40625 22.453125 -9.816406 22.453125 -11.578125 L 15.515625 -11.578125 L 15.515625 -16.859375 Z M 29.421875 -16.859375 "/></g></g></g></g></svg>